<svg width="593" height="159" viewBox="0 0 593 159" fill="none" xmlns="http://www.w3.org/2000/svg">
<path fill-rule="evenodd" clip-rule="evenodd" d="M437.836 77.3145C434.503 77.5407 431.587 77.8069 431.357 77.9066C431.127 78.0058 432.538 78.2511 434.492 78.4512C438.035 78.8143 438.03 78.8154 432.611 78.994C429.623 79.0926 425.202 79.3786 422.788 79.6291C419.751 79.9446 421.297 80.002 427.804 79.8153C442.676 79.389 457.947 79.012 459.911 79.0219C461.007 79.0277 461.611 78.8038 461.454 78.4512C461.284 78.0702 464.941 77.8713 472.113 77.8713C479.863 77.8713 482.949 78.0539 482.75 78.5011C482.573 78.8978 482.835 79.081 483.457 78.9952C484 78.9198 484.726 79.0132 485.071 79.2028C485.416 79.3919 488.52 79.8257 491.968 80.1667C495.417 80.5077 498.944 81.0169 499.806 81.2982C500.668 81.5789 501.374 81.5928 501.374 81.3289C501.374 80.6701 500.267 80.2868 493.849 78.7215C493.045 78.5254 491.54 78.0951 490.505 77.7657C488.277 77.0558 446.888 76.7015 437.836 77.3145ZM310.553 77.9252C308.589 78.2482 308.645 78.2743 311.494 78.3602C314.494 78.45 315.401 78.2047 313.584 77.7941C313.066 77.677 311.703 77.7361 310.553 77.9252ZM305.955 78.2105C305.495 78.3097 303.474 78.5585 301.462 78.7632C299.45 78.9679 297.804 79.3275 297.804 79.563C297.804 79.7979 298.415 79.8866 299.163 79.7596C300.204 79.5827 300.375 79.6714 299.894 80.1412C299.418 80.6063 299.719 80.7391 301.148 80.6933C302.864 80.6388 302.919 80.5947 301.775 80.1911L300.521 79.7486L302.054 79.6795C302.897 79.6418 303.649 79.8437 303.726 80.1284C303.805 80.4225 305.397 80.4584 307.418 80.2114C311.251 79.7439 311.184 79.5206 307.209 79.5085C305.83 79.5038 305.172 79.3728 305.746 79.2167C306.734 78.9488 308.07 77.775 307.188 77.9501C306.97 77.9936 306.415 78.1108 305.955 78.2105ZM450.081 78.2998C448.653 78.4129 446.208 78.4135 444.647 78.3016C443.085 78.1902 444.253 78.0974 447.242 78.0969C450.23 78.0957 451.508 78.1873 450.081 78.2998ZM455.915 78.2552C455.628 78.4164 455.158 78.4164 454.87 78.2552C454.583 78.0945 454.818 77.9629 455.393 77.9629C455.968 77.9629 456.203 78.0945 455.915 78.2552ZM487.684 78.8351C487.397 78.9964 486.926 78.9964 486.639 78.8351C486.352 78.6745 486.587 78.5428 487.161 78.5428C487.736 78.5428 487.971 78.6745 487.684 78.8351ZM490.618 78.8317C490.335 78.9906 489.771 79.0004 489.364 78.8531C488.957 78.7058 489.189 78.5759 489.878 78.5643C490.568 78.5527 490.901 78.6727 490.618 78.8317ZM311.703 79.4307C312.105 79.5769 312.764 79.5769 313.166 79.4307C313.568 79.2852 313.239 79.1657 312.434 79.1657C311.63 79.1657 311.301 79.2852 311.703 79.4307ZM315.674 79.4151C315.962 79.5763 316.432 79.5763 316.719 79.4151C317.007 79.2544 316.771 79.1228 316.196 79.1228C315.622 79.1228 315.387 79.2544 315.674 79.4151ZM235.649 80.3732C235.529 80.6434 233.335 80.811 230.773 80.7455C226.125 80.6278 217.984 81.4815 216.614 82.2308C216.156 82.4813 215.923 83.161 215.978 84.0872C216.072 85.6635 216.137 85.7197 218.487 86.2614C220.411 86.7051 220.566 87.6434 218.696 87.5257C217.451 87.4474 217.348 87.5738 217.458 89.0353C217.564 90.4319 217.434 90.6314 216.413 90.6389C214.951 90.6505 214.436 91.1661 214.321 92.7343C214.246 93.7544 214.517 94.0316 215.889 94.3355C218.108 94.8279 217.988 95.63 215.64 95.9971C213.785 96.287 211.479 98.376 211.92 99.3666C212.03 99.6131 211.555 99.9871 210.865 100.198C209.78 100.528 209.691 100.692 210.204 101.405C210.531 101.858 211.048 102.233 211.352 102.238C211.768 102.245 211.753 102.379 211.292 102.784C210.864 103.159 211.352 103.373 212.926 103.499C215.145 103.677 215.172 103.701 215.209 105.564C215.231 106.601 215.106 107.449 214.934 107.449C214.762 107.449 214.621 107.971 214.621 108.609C214.621 109.468 214.323 109.789 213.471 109.847C212.469 109.916 212.444 109.959 213.273 110.18C214.485 110.502 216.689 112.08 215.935 112.085C215.616 112.087 215.468 112.45 215.596 112.916C215.937 114.146 215.109 114.81 212.358 115.512C209.897 116.141 208.836 116.728 210.162 116.728C210.545 116.728 210.859 117.119 210.859 117.598C210.859 118.275 210.301 118.468 208.351 118.468C205.646 118.468 204.805 119.576 207.41 119.707C208.38 119.755 208.619 119.881 208.037 120.037C207.52 120.175 207.097 120.513 207.097 120.789C207.097 121.064 206.717 121.456 206.254 121.661C205.791 121.864 205.516 122.264 205.642 122.547C205.769 122.831 205.254 123.311 204.499 123.613C203.312 124.088 203.552 124.172 206.261 124.233C209.48 124.305 209.599 124.915 206.544 125.677C205.189 126.015 205.024 126.207 205.461 126.939C205.877 127.633 206.048 127.655 206.336 127.049C206.615 126.464 206.834 126.551 207.322 127.44C207.898 128.487 207.871 128.63 207.001 129.152C206.188 129.639 206.383 129.766 208.351 130.039C210.414 130.324 210.559 130.429 209.761 131.063C209.273 131.452 208.051 131.944 207.044 132.156C203.917 132.816 203.737 133.507 206.679 133.56L209.396 133.608L205.843 135.462L202.29 137.316L204.38 137.606L206.47 137.896L204.007 138.681C202.286 139.23 201.719 139.62 202.126 139.977C202.446 140.258 203.084 140.511 203.544 140.538C204.374 140.587 204.374 140.591 203.551 141.037C202.95 141.362 203.467 141.623 205.432 141.987C207.887 142.44 207.984 142.507 206.47 142.695C205.55 142.81 204.619 143.147 204.4 143.445C204.154 143.78 205.902 144.003 208.999 144.032C212.856 144.067 213.732 144.21 212.844 144.66C212.178 144.998 211.695 145.676 211.695 146.275C211.695 147.112 210.964 147.514 207.834 148.395C205.71 148.993 204.327 149.577 204.76 149.692C205.389 149.861 205.43 150.005 204.963 150.415C204.534 150.792 204.656 150.932 205.425 150.945C205.999 150.955 206.746 151.206 207.085 151.503C207.769 152.103 207.591 152.249 205.366 152.922C204.759 153.105 204.161 153.625 204.036 154.077C203.845 154.765 204.567 154.855 208.483 154.631C211.938 154.434 212.994 154.53 212.531 155C212.002 155.537 212.035 155.622 212.74 155.544C214.137 155.389 214.443 155.574 213.785 156.177C213.358 156.568 213.96 156.619 215.666 156.338C218.788 155.821 218.629 155.815 225.698 156.71C230.03 157.259 236.381 157.348 250.151 157.056C261.582 156.812 272.298 156.895 277.949 157.271C296.573 158.512 298.426 158.599 298.159 158.217C298.01 158.003 295.941 157.687 293.561 157.514C291.182 157.341 289.056 156.967 288.838 156.683C288.294 155.973 324.287 156.028 336.982 156.756C344.264 157.174 399.264 157.991 418.399 157.966C422.668 157.96 441.288 157.227 442.142 157.031C442.847 156.869 443.211 156.989 443.058 157.333C442.918 157.648 442.991 157.905 443.221 157.905C443.451 157.905 443.755 157.644 443.898 157.325C444.236 156.564 445.779 156.573 445.779 157.335C445.779 157.991 455.653 158.03 462.864 157.403C466.166 157.116 467.249 157.2 467.403 157.755C467.514 158.156 467.877 158.485 468.211 158.485C468.545 158.485 468.702 158.224 468.56 157.905C468.418 157.586 468.642 157.28 469.058 157.225C469.474 157.171 470.096 157.068 470.441 156.997C470.786 156.926 472.103 156.836 473.367 156.797C474.768 156.755 475.452 156.538 475.118 156.245C474.576 155.767 477.54 155.323 485.907 154.63C490.114 154.281 492.017 153.329 488.812 153.177C487.79 153.128 486.764 153.028 486.534 152.954C486.304 152.879 484.329 152.753 482.145 152.673L478.174 152.526L480.891 152.075C482.386 151.827 485.458 151.542 487.718 151.443C489.978 151.343 491.917 151.06 492.027 150.814C492.137 150.567 492.603 150.365 493.063 150.365C493.523 150.365 493.798 150.138 493.674 149.861C493.549 149.581 492.656 149.57 491.664 149.836C489.663 150.373 487.755 150.508 488.055 150.091C488.458 149.532 497.118 147.462 497.718 147.781C498.068 147.967 498.449 147.717 498.59 147.209C498.767 146.568 499.48 146.278 501.047 146.211L503.255 146.116L500.956 145.774C499.147 145.505 498.896 145.358 499.782 145.086C500.401 144.895 501.812 144.933 502.917 145.17C504.022 145.407 504.969 145.548 505.021 145.483C505.074 145.418 504.817 144.772 504.451 144.047C504.009 143.173 503.645 142.923 503.37 143.304C503.094 143.686 502.511 143.677 501.641 143.274C499.306 142.195 499.674 141.952 503.328 142.164C505.876 142.311 506.83 142.185 506.627 141.729C506.45 141.333 506.712 141.066 507.305 141.034C508.165 140.987 504.057 139.829 500.747 139.184C500.057 139.05 500.903 138.897 502.628 138.844C504.352 138.792 506.045 138.495 506.39 138.186C506.91 137.72 506.874 137.621 506.181 137.606C505.721 137.596 505.062 137.313 504.718 136.976C504.259 136.528 504.624 136.462 506.075 136.731C508.669 137.21 509.217 136.703 508.02 134.936C507.491 134.153 507.305 133.547 507.596 133.547C507.879 133.547 507.995 133.286 507.853 132.967C507.711 132.648 506.806 132.383 505.842 132.378C504.879 132.373 503.808 132.097 503.464 131.764C503.013 131.329 503.452 131.265 505.031 131.538C507.264 131.922 508.109 131.15 506.285 130.391C505.368 130.009 505.365 129.986 506.181 129.442C506.843 129.002 506.711 128.936 505.543 129.129C503.86 129.406 502.093 128.156 503.276 127.526C503.647 127.328 504.288 127.167 504.7 127.167C505.113 127.167 505.685 126.776 505.972 126.297C506.38 125.614 506.382 125.427 505.978 125.427C505.693 125.427 505.571 125.04 505.705 124.557C505.859 123.998 505.689 123.673 505.227 123.647C504.631 123.613 504.651 123.525 505.345 123.131C506.121 122.689 506.097 122.61 505.004 122.011C504.357 121.658 503.557 121.368 503.227 121.368C502.898 121.368 502.628 121.107 502.628 120.788C502.628 120.469 503.709 120.182 505.031 120.151L507.435 120.095L505.867 119.203C504.168 118.235 503.859 117.096 505.057 116.207C505.473 115.898 507.919 115.46 510.491 115.233C513.063 115.008 515.168 114.621 515.168 114.374C515.168 114.127 514.65 113.663 514.018 113.342C513.056 112.855 513.363 112.752 515.899 112.714C517.619 112.688 518.93 112.417 518.93 112.088C518.93 111.769 518.542 111.508 518.069 111.508C517.596 111.508 517.32 111.259 517.456 110.954C517.591 110.649 517.979 110.546 518.316 110.726C518.654 110.905 518.93 110.807 518.93 110.508C518.93 110.208 518.036 109.672 516.944 109.317C515.259 108.768 515.906 108.699 521.229 108.855L527.499 109.04L522.065 107.98C512.556 106.125 512.726 106.173 513.914 105.679C514.881 105.277 514.89 105.24 514.043 105.187C512.768 105.106 512.445 104.106 513.594 103.8C514.121 103.659 513.768 103.512 512.799 103.468C511.841 103.425 510.995 103.132 510.918 102.817C510.841 102.503 508.616 102.032 505.972 101.772C501.263 101.308 501.201 101.283 502.929 100.586C504.054 100.132 506.987 99.9204 511.027 100.002C516.874 100.121 517.407 100.044 517.954 99.0053C518.475 98.0153 519.175 97.8564 523.754 97.687C527.907 97.5339 528.962 97.3281 528.962 96.6721C528.962 96.2198 528.799 95.8498 528.599 95.8498C528.011 95.8498 520.878 94.1024 520.079 93.7631C518.569 93.1205 519.432 92.3677 521.751 92.3034C524.129 92.2372 524.137 92.2314 522.483 91.757C521.563 91.4932 519.306 91.2426 517.467 91.2009C514.191 91.1255 509.749 90.3373 510.988 90.0502C512.167 89.7771 507.856 88.9762 504.975 88.9333C502.463 88.8956 501.973 88.7059 501.128 87.4405L500.159 85.9906L501.916 85.9384L503.673 85.8862L502.243 85.3161C501.457 85.0029 500.47 84.8719 500.049 85.0244C499.628 85.1769 499.284 85.0847 499.284 84.8191C499.284 84.5535 498.954 84.2165 498.552 84.0704C498.15 83.9248 498.667 83.7421 499.702 83.6656L501.583 83.5258L499.702 83.0862C493.553 81.6502 449.831 80.8574 435.746 81.9269C431.723 82.2325 426.519 82.4888 424.181 82.4964C421.182 82.5068 419.869 82.7243 419.72 83.2358C419.56 83.7815 419.422 83.7937 419.159 83.2834C418.864 82.7115 410.184 82.0533 409.412 82.5439C408.658 83.0235 298.544 82.9603 291.116 82.4761C286.173 82.1536 280.53 81.7883 278.576 81.6641C276.622 81.54 270.805 81.3023 265.651 81.137C260.496 80.9711 254.382 80.6718 252.065 80.4723C245.366 79.8947 235.888 79.8373 235.649 80.3732ZM447.79 80.0072C448.092 80.1748 448.453 80.1539 448.591 79.9614C448.73 79.7689 448.484 79.632 448.043 79.6569C447.556 79.6848 447.457 79.8222 447.79 80.0072ZM436.504 80.5872C436.806 80.7548 437.166 80.7339 437.305 80.5414C437.444 80.3488 437.197 80.2119 436.757 80.2369C436.27 80.2647 436.171 80.4022 436.504 80.5872ZM439.848 80.5872C440.15 80.7548 440.51 80.7339 440.649 80.5414C440.788 80.3488 440.541 80.2119 440.101 80.2369C439.614 80.2647 439.515 80.4022 439.848 80.5872ZM305.642 81.7604C306.159 81.8984 307.005 81.8984 307.523 81.7604C308.04 81.6218 307.617 81.5087 306.582 81.5087C305.548 81.5087 305.124 81.6218 305.642 81.7604ZM390.296 84.0512C390.013 84.2101 389.449 84.22 389.042 84.0727C388.635 83.9254 388.867 83.7955 389.557 83.7839C390.246 83.7723 390.579 83.8923 390.296 84.0512ZM497.498 84.0211C497.359 84.2136 496.999 84.2345 496.697 84.0669C496.364 83.8819 496.463 83.7444 496.95 83.7166C497.39 83.6917 497.637 83.8285 497.498 84.0211ZM435.208 85.0511C435.351 85.2488 433.979 85.4402 432.159 85.4767C430.338 85.5127 424.053 85.6751 418.19 85.8369C412.328 85.9993 391.576 86.3328 372.076 86.5792C352.576 86.8257 335.595 87.2044 334.342 87.4219C332.038 87.8209 329.282 87.3604 329.787 86.6604C330.078 86.2574 334.035 86.1495 356.221 85.9424C364.688 85.863 370.119 85.5962 370.119 85.2593C370.119 84.9554 370.384 84.8475 370.707 85.0197C371.601 85.4953 385.522 85.4147 395.618 84.8753C405.489 84.3476 434.795 84.4781 435.208 85.0511ZM446.127 84.5413C445.826 84.9583 438.661 85.0087 438.364 84.5958C438.227 84.4062 439.965 84.2507 442.226 84.2507C444.486 84.2507 446.242 84.3812 446.127 84.5413ZM447.755 84.601C447.617 84.7936 447.256 84.8144 446.954 84.6468C446.621 84.4618 446.72 84.3244 447.207 84.2965C447.648 84.2716 447.894 84.4085 447.755 84.601ZM416.001 85.2407C416.521 85.3793 417.273 85.3741 417.673 85.2291C418.072 85.0841 417.647 84.9704 416.727 84.9768C415.808 84.9832 415.481 85.1021 416.001 85.2407ZM473.093 85.2656C473.199 85.5046 470.686 85.7006 467.51 85.7006C464.333 85.7006 461.592 85.5046 461.42 85.2656C461.247 85.0267 463.759 84.8307 467.003 84.8307C470.246 84.8307 472.987 85.0267 473.093 85.2656ZM475.248 85.4106C474.107 86.0915 473.785 86.0915 473.785 85.4106C473.785 85.0917 474.302 84.8492 474.935 84.8713C475.953 84.9078 475.989 84.9687 475.248 85.4106ZM398.884 85.8067C399.185 85.9743 399.546 85.9535 399.685 85.7609C399.823 85.5684 399.577 85.4315 399.136 85.4564C398.649 85.4843 398.55 85.6217 398.884 85.8067ZM401.373 85.8311C402.124 85.9598 403.253 85.9575 403.881 85.8253C404.509 85.6925 403.894 85.5869 402.515 85.5904C401.135 85.5933 400.622 85.7018 401.373 85.8311ZM316.993 87.1847C316.692 87.4428 316.275 87.5077 316.067 87.3297C315.86 87.1516 315.936 86.7944 316.236 86.5363C316.537 86.2782 316.954 86.2133 317.162 86.3913C317.369 86.5694 317.293 86.9266 316.993 87.1847ZM324.557 86.6964C324.557 86.9463 323.193 87.1197 321.526 87.0821C319.277 87.031 318.819 86.9017 319.75 86.5804C321.354 86.026 324.557 86.1037 324.557 86.6964ZM328.737 86.2951C328.737 86.9144 326.48 87.7641 325.843 87.3842C325.322 87.0734 325.403 86.8976 326.229 86.5485C327.505 86.008 328.737 85.8839 328.737 86.2951ZM315.137 87.1835C315.003 87.484 313.446 87.7264 311.678 87.7217C309.91 87.7165 308.683 87.5211 308.952 87.2868C309.696 86.6378 315.422 86.5421 315.137 87.1835ZM448.817 86.951C448.534 87.1099 447.97 87.1197 447.563 86.9724C447.156 86.8251 447.388 86.6952 448.078 86.6836C448.767 86.672 449.1 86.7921 448.817 86.951ZM478.07 87.5599C477.553 87.698 476.706 87.698 476.189 87.5599C475.672 87.4213 476.095 87.3082 477.129 87.3082C478.164 87.3082 478.587 87.4213 478.07 87.5599ZM218.801 95.2698C218.801 95.5888 218.718 95.8498 218.616 95.8498C218.515 95.8498 218.316 95.5888 218.174 95.2698C218.032 94.9508 218.115 94.6899 218.358 94.6899C218.601 94.6899 218.801 94.9508 218.801 95.2698ZM207.436 116.544C207.738 116.712 208.099 116.691 208.237 116.498C208.376 116.306 208.13 116.169 207.689 116.194C207.202 116.222 207.103 116.359 207.436 116.544ZM504.604 126.358C504.466 126.55 504.105 126.571 503.803 126.403C503.47 126.218 503.569 126.081 504.056 126.053C504.496 126.028 504.743 126.165 504.604 126.358ZM210.859 127.747C210.859 128.066 210.659 128.327 210.416 128.327C210.173 128.327 210.09 128.066 210.232 127.747C210.374 127.428 210.573 127.167 210.674 127.167C210.776 127.167 210.859 127.428 210.859 127.747ZM335.233 136.485C335.683 137.495 335.171 137.709 334.597 136.75C334.267 136.199 334.236 135.866 334.513 135.866C334.757 135.866 335.082 136.145 335.233 136.485ZM361.74 137.913C361.988 137.7 362.083 137.283 361.95 136.986C361.812 136.676 362.772 136.446 364.208 136.446C365.65 136.446 366.77 136.715 366.858 137.083C366.943 137.433 367.895 137.859 368.975 138.027C371.666 138.448 371.052 139.341 368.224 139.121C366.523 138.988 365.939 139.142 365.939 139.724C365.939 140.709 364.41 140.757 364.126 139.781C364.004 139.361 363.901 139.497 363.882 140.105C363.864 140.682 363.695 141.022 363.506 140.86C363.317 140.698 362.849 141.074 362.465 141.696C361.646 143.022 359.669 143.232 359.669 141.992C359.669 141.358 359.306 141.241 358.15 141.501C356.958 141.769 356.675 141.668 356.836 141.03C356.95 140.582 357.309 140.243 357.635 140.275C357.962 140.308 358.485 139.952 358.8 139.486C359.296 138.749 359.185 138.69 357.952 139.035C357.172 139.254 356.221 139.554 355.838 139.703C355.455 139.852 355.031 139.726 354.897 139.424C354.762 139.122 355.603 138.694 356.766 138.472C357.928 138.25 359.104 137.728 359.379 137.312C359.788 136.691 360.005 136.712 360.583 137.427C360.971 137.907 361.492 138.126 361.74 137.913ZM420.698 137.251C420.698 137.727 418.142 137.966 417.938 137.509C417.82 137.244 418.392 137.026 419.21 137.026C420.029 137.026 420.698 137.127 420.698 137.251ZM344.369 140.743C344.01 142.041 343.484 141.392 343.61 139.805C343.767 137.832 343.777 137.816 344.216 138.861C344.44 139.392 344.508 140.239 344.369 140.743ZM373.994 138.567C373.711 138.726 373.147 138.735 372.74 138.588C372.333 138.441 372.565 138.311 373.254 138.299C373.944 138.288 374.277 138.408 373.994 138.567ZM388.094 138.796C385.413 139.457 375.882 139.436 375.135 138.766C374.72 138.393 377.113 138.226 382.242 138.267C387.531 138.312 389.38 138.478 388.094 138.796ZM396.767 138.601C396.135 138.734 395.101 138.734 394.468 138.601C393.836 138.469 394.353 138.36 395.618 138.36C396.882 138.36 397.4 138.469 396.767 138.601ZM400.738 138.57C400.451 138.731 399.981 138.731 399.693 138.57C399.406 138.41 399.641 138.278 400.216 138.278C400.791 138.278 401.026 138.41 400.738 138.57ZM404.918 138.57C404.631 138.731 404.161 138.731 403.873 138.57C403.586 138.41 403.821 138.278 404.396 138.278C404.971 138.278 405.206 138.41 404.918 138.57ZM333.753 139.05C333.753 139.894 332.194 141.663 331.465 141.647C330.65 141.628 330.654 141.585 331.574 140.521L332.53 139.415L330.738 139.192C329.164 138.996 329.239 138.956 331.349 138.868C332.671 138.812 333.753 138.894 333.753 139.05ZM335.729 139.116C335.591 139.309 335.23 139.33 334.929 139.162C334.595 138.977 334.694 138.84 335.181 138.812C335.622 138.787 335.868 138.924 335.729 139.116ZM361.341 139.346C361.341 139.665 361.541 139.926 361.784 139.926C362.027 139.926 362.11 139.665 361.968 139.346C361.826 139.027 361.627 138.766 361.526 138.766C361.424 138.766 361.341 139.027 361.341 139.346ZM492.064 139.116C491.925 139.309 491.565 139.33 491.263 139.162C490.93 138.977 491.029 138.84 491.516 138.812C491.956 138.787 492.203 138.924 492.064 139.116ZM495.208 139.15C494.921 139.311 494.451 139.311 494.163 139.15C493.876 138.989 494.111 138.858 494.685 138.858C495.26 138.858 495.496 138.989 495.208 139.15ZM315.665 139.696C315.526 139.889 315.166 139.91 314.864 139.742C314.531 139.557 314.63 139.42 315.117 139.392C315.557 139.367 315.804 139.504 315.665 139.696ZM327.387 140.035C327.296 140.414 326.972 140.839 326.667 140.98C326.355 141.124 326.232 140.968 326.386 140.623C326.539 140.278 326.244 139.898 325.712 139.757C325.038 139.577 325.167 139.481 326.159 139.425C327.068 139.373 327.495 139.586 327.387 140.035ZM340.65 140.506C340.498 141.171 340.575 141.666 340.831 141.666C341.076 141.666 341.277 141.883 341.277 142.149C341.277 142.902 339.577 142.542 339.206 141.71C338.95 141.134 338.673 141.117 337.978 141.633C337.483 141.999 336.876 142.125 336.627 141.912C336.126 141.482 338.947 139.468 340.155 139.393C340.73 139.358 340.85 139.629 340.65 140.506ZM419.653 139.926C419.795 140.245 419.712 140.506 419.469 140.506C419.226 140.506 419.026 140.245 419.026 139.926C419.026 139.607 419.109 139.346 419.21 139.346C419.312 139.346 419.511 139.607 419.653 139.926ZM423.624 139.602C423.624 139.743 423.436 140.019 423.206 140.216C422.976 140.413 422.788 140.298 422.788 139.96C422.788 139.623 422.976 139.346 423.206 139.346C423.436 139.346 423.624 139.461 423.624 139.602ZM484.766 139.727C484.483 139.885 483.918 139.895 483.512 139.748C483.105 139.601 483.337 139.471 484.026 139.459C484.716 139.448 485.049 139.568 484.766 139.727ZM487.048 139.696C486.909 139.889 486.548 139.91 486.247 139.742C485.914 139.557 486.013 139.42 486.5 139.392C486.94 139.367 487.187 139.504 487.048 139.696ZM321.84 140.506C321.982 140.825 321.898 141.086 321.655 141.086C321.412 141.086 321.213 140.825 321.213 140.506C321.213 140.187 321.295 139.926 321.397 139.926C321.498 139.926 321.697 140.187 321.84 140.506ZM371.26 140.276C371.121 140.469 370.761 140.49 370.459 140.322C370.126 140.137 370.225 140 370.712 139.972C371.152 139.947 371.399 140.084 371.26 140.276ZM373.35 140.276C373.211 140.469 372.851 140.49 372.549 140.322C372.216 140.137 372.315 140 372.802 139.972C373.242 139.947 373.489 140.084 373.35 140.276ZM377.225 140.796C377.225 141.274 377.414 141.666 377.643 141.666C377.873 141.666 378.061 141.34 378.061 140.941C378.06 140.403 378.978 140.265 381.619 140.404C383.772 140.518 385.08 140.813 384.929 141.153C384.792 141.461 384.347 141.567 383.942 141.388C383.536 141.21 382.658 141.459 381.992 141.941C380.918 142.719 380.763 142.72 380.644 141.952C380.492 140.984 378.672 140.764 378.27 141.666C377.99 142.295 376.267 142.462 375.861 141.899C375.454 141.335 376.013 139.926 376.643 139.926C376.963 139.926 377.225 140.318 377.225 140.796ZM415.682 140.796C415.242 141.533 415.333 141.666 416.283 141.666C416.924 141.666 417.293 141.914 417.145 142.246C417.003 142.565 416.491 142.826 416.006 142.826C415.521 142.826 415.259 143.013 415.423 143.241C415.588 143.468 417.245 143.575 419.106 143.477C422.128 143.318 422.461 143.403 422.221 144.271C422.044 144.91 422.131 145.151 422.474 144.977C422.762 144.83 422.95 144.417 422.893 144.058C422.835 143.699 423.27 143.406 423.858 143.406C424.464 143.406 424.816 143.657 424.669 143.986C424.527 144.305 424.61 144.566 424.854 144.566C425.097 144.566 425.296 144.305 425.296 143.986C425.296 143.021 426.86 143.336 427.143 144.359C427.287 144.883 427.343 145.399 427.266 145.506C427.189 145.612 425.273 145.77 423.007 145.857C420 145.973 418.841 145.82 418.713 145.291C418.617 144.892 418.167 144.566 417.713 144.566C417.258 144.566 417.003 144.827 417.145 145.146C417.296 145.484 416.871 145.726 416.125 145.726C415.422 145.726 414.846 145.465 414.846 145.146C414.846 144.827 414.15 144.566 413.299 144.566C411.609 144.566 411.825 143.638 413.592 143.31C414.378 143.164 414.67 142.72 414.769 141.521C414.85 140.543 415.153 139.926 415.552 139.926C416.083 139.926 416.107 140.086 415.682 140.796ZM457.274 141.263C457.734 141.43 457.216 141.54 456.124 141.508C455.032 141.476 454.139 141.219 454.139 140.939C454.139 140.657 454.538 140.604 455.027 140.819C455.706 141.118 455.835 141.025 455.574 140.423C455.305 139.804 455.361 139.778 455.835 140.298C456.166 140.663 456.814 141.097 457.274 141.263ZM405.023 141.086C404.881 141.405 404.588 141.666 404.371 141.666C404.155 141.666 403.978 141.405 403.978 141.086C403.978 140.767 404.271 140.506 404.63 140.506C404.988 140.506 405.165 140.767 405.023 141.086ZM360.505 141.666C361.316 142.393 361.759 142.393 361.759 141.666C361.759 141.347 361.336 141.09 360.819 141.095C360.058 141.102 359.998 141.211 360.505 141.666ZM399.798 141.918C399.798 142.389 400.296 142.837 400.947 142.953C401.869 143.116 401.756 143.212 400.373 143.435C398.801 143.688 398.648 143.597 398.648 142.4C398.648 141.672 398.905 141.086 399.223 141.086C399.539 141.086 399.798 141.46 399.798 141.918ZM412.756 141.58C412.756 141.871 412 142.124 411.076 142.142C410.151 142.159 409.48 141.983 409.583 141.751C409.864 141.121 412.756 140.965 412.756 141.58ZM282.547 142.246C282.689 142.565 282.512 142.826 282.154 142.826C281.795 142.826 281.502 142.565 281.502 142.246C281.502 141.927 281.679 141.666 281.895 141.666C282.112 141.666 282.405 141.927 282.547 142.246ZM365.521 142.28C365.521 142.618 365.312 142.715 365.056 142.496C364.801 142.277 364.428 142.457 364.227 142.897C363.938 143.529 363.861 143.484 363.856 142.681C363.852 142.05 364.165 141.666 364.685 141.666C365.145 141.666 365.521 141.943 365.521 142.28ZM371.373 142.101C371.373 142.34 370.921 142.536 370.368 142.536C369.815 142.536 369.451 142.34 369.557 142.101C369.663 141.862 370.116 141.666 370.562 141.666C371.008 141.666 371.373 141.862 371.373 142.101ZM451.004 142.246C450.862 142.565 450.333 142.807 449.83 142.785C448.947 142.746 448.944 142.727 449.75 142.246C450.9 141.56 451.309 141.56 451.004 142.246ZM481.727 142.246C481.727 142.565 482.151 142.83 482.668 142.835C483.185 142.84 483.89 143.097 484.235 143.406C484.698 143.82 484.369 144 482.981 144.09C481.947 144.157 480.442 144.316 479.637 144.442C478.833 144.568 471.685 144.748 463.753 144.841C455.821 144.935 450.46 144.816 451.84 144.578C453.219 144.34 455.288 143.983 456.438 143.785C460.854 143.023 466.211 142.825 466.473 143.412C466.618 143.738 466.93 143.839 467.166 143.637C467.402 143.435 468.034 143.595 468.572 143.994C469.109 144.393 469.891 144.53 470.309 144.298C470.726 144.066 472.42 143.831 474.072 143.775C475.724 143.72 477.198 143.503 477.349 143.294C477.499 143.086 478.263 143.06 479.047 143.236C480.181 143.492 480.473 143.364 480.473 142.612C480.473 142.092 480.755 141.666 481.1 141.666C481.445 141.666 481.727 141.927 481.727 142.246ZM494.024 142.391C494.219 142.971 494.316 142.971 494.511 142.391C494.774 141.611 498.263 141.363 498.592 142.101C498.698 142.34 497.957 142.444 496.945 142.332C495.795 142.205 495.103 142.369 495.103 142.767C495.103 143.735 493.138 143.532 492.862 142.536C492.569 141.478 493.671 141.341 494.024 142.391ZM397.081 142.826C396.939 143.145 396.316 143.387 395.698 143.365C394.693 143.329 394.662 143.271 395.409 142.826C396.57 142.133 397.389 142.133 397.081 142.826ZM436.373 142.826C436.231 143.145 436.503 143.406 436.976 143.406C437.449 143.406 437.836 143.145 437.836 142.826C437.836 142.141 438.647 142.296 439.335 143.112C439.966 143.861 437.82 145.183 436.657 144.761C436.208 144.598 435.714 144.748 435.56 145.095C435.405 145.442 434.997 145.726 434.652 145.726C434.307 145.726 434.15 145.444 434.303 145.101C434.496 144.668 433.99 144.599 432.656 144.877C431.488 145.12 430.73 145.055 430.73 144.712C430.73 144.402 431.809 143.993 433.127 143.805C434.446 143.616 435.59 143.188 435.67 142.854C435.75 142.52 436 142.246 436.224 142.246C436.448 142.246 436.516 142.507 436.373 142.826ZM448.325 142.781C448.001 143.065 447.182 143.201 446.506 143.082C445.558 142.916 445.226 143.128 445.06 144.006C444.942 144.633 444.685 145.146 444.489 145.146C444.038 145.146 444.524 143.257 445.121 142.69C445.368 142.455 446.322 142.264 447.242 142.264C448.382 142.264 448.727 142.428 448.325 142.781ZM301.148 143.338C301.148 144.029 299.532 144.58 299.265 143.981C299.148 143.719 299.289 143.373 299.578 143.211C300.434 142.732 301.148 142.79 301.148 143.338ZM306.582 143.406C306.582 143.725 306.405 143.986 306.189 143.986C305.972 143.986 305.679 143.725 305.537 143.406C305.395 143.087 305.572 142.826 305.931 142.826C306.289 142.826 306.582 143.087 306.582 143.406ZM314.106 143.343C314.106 144.219 311.054 144.406 309.938 143.598C308.959 142.89 309.075 142.833 311.494 142.829C312.931 142.828 314.106 143.058 314.106 143.343ZM315.392 143.565C315.34 144.259 314.767 144.124 314.587 143.377C314.495 142.994 314.646 142.785 314.922 142.913C315.197 143.04 315.409 143.334 315.392 143.565ZM319.093 145.392C319.109 145.687 318.774 145.426 318.348 144.812C317.822 144.055 317.721 143.562 318.034 143.282C318.452 142.906 319.019 144.034 319.093 145.392ZM322.641 143.178C323.492 143.631 323.499 144.566 322.651 144.566C322.293 144.566 322.108 144.811 322.242 145.11C322.375 145.41 322.105 145.616 321.642 145.567C320.775 145.477 320.64 144.066 321.422 143.27C321.934 142.748 321.845 142.754 322.641 143.178ZM486.743 143.406C486.743 143.725 486.414 143.982 486.012 143.977C485.386 143.97 485.371 143.886 485.907 143.406C486.696 142.698 486.743 142.698 486.743 143.406ZM326.872 144.309C325.803 144.918 325.746 145.053 326.454 145.302C327.116 145.536 327.073 145.604 326.225 145.658C325.62 145.697 324.973 145.276 324.697 144.663C324.259 143.688 324.382 143.6 326.164 143.602C328.092 143.604 328.098 143.611 326.872 144.309ZM332.618 144.977C332.786 146.2 332.687 146.357 331.925 146.072C331.436 145.89 330.283 145.73 329.364 145.716C328.011 145.695 327.833 145.576 328.432 145.092C328.839 144.763 329.067 144.259 328.939 143.971C328.811 143.683 329.542 143.471 330.563 143.499C332.191 143.544 332.446 143.727 332.618 144.977ZM344.901 144.892C345.335 145.716 345.572 145.798 345.96 145.259C346.656 144.294 347.547 144.392 347.547 145.436C347.547 146.114 347.016 146.296 345.143 146.26C343.821 146.235 342.975 146.082 343.262 145.922C344.491 145.233 343.616 144.566 341.486 144.566C338.999 144.566 338.33 145.505 340.545 145.886C341.39 146.031 341.004 146.155 339.525 146.213C338.19 146.265 337.023 146.029 336.865 145.675C336.663 145.221 336.457 145.221 336.13 145.675C335.88 146.022 335.393 146.306 335.049 146.306C334.585 146.306 334.544 146.136 334.891 145.655C335.148 145.297 335.255 144.628 335.128 144.167C334.932 143.46 335.627 143.369 339.619 143.581C343.582 143.791 344.432 144.001 344.901 144.892ZM354.233 144.711C354.236 145.358 351.399 145.237 351.105 144.577C350.952 144.234 351.522 144.061 352.541 144.142C353.471 144.215 354.232 144.472 354.233 144.711ZM369.283 144.531C369.283 144.832 369.096 145.238 368.867 145.434C368.137 146.06 356.846 145.773 355.907 145.105C355.43 144.766 360.608 144.168 364.79 144.08C367.367 144.026 369.283 144.218 369.283 144.531ZM387.615 144.868C388.055 145.479 387.264 145.686 383.366 145.98C379.368 146.282 375.135 145.544 375.135 144.544C375.135 144.034 387.241 144.349 387.615 144.868ZM402.515 145.125C399.818 145.459 397.791 145.213 398.462 144.633C398.69 144.436 400.259 144.397 401.949 144.545L405.023 144.814L402.515 145.125ZM409.83 144.566C409.83 144.885 409.747 145.146 409.646 145.146C409.544 145.146 409.345 144.885 409.203 144.566C409.061 144.247 409.144 143.986 409.387 143.986C409.631 143.986 409.83 144.247 409.83 144.566ZM419.235 144.566C419.093 144.885 419.27 145.146 419.628 145.146C419.987 145.146 420.28 144.885 420.28 144.566C420.28 144.247 420.103 143.986 419.887 143.986C419.67 143.986 419.377 144.247 419.235 144.566ZM505.893 144.382C506.195 144.549 506.556 144.529 506.694 144.336C506.833 144.144 506.587 144.007 506.146 144.032C505.659 144.059 505.56 144.197 505.893 144.382ZM407.973 145.091C407.844 145.38 407.363 145.48 406.904 145.313C405.753 144.896 405.857 144.566 407.138 144.566C407.726 144.566 408.102 144.802 407.973 145.091ZM429.581 144.95C429.294 145.111 428.823 145.111 428.536 144.95C428.249 144.789 428.484 144.657 429.058 144.657C429.633 144.657 429.868 144.789 429.581 144.95ZM448.809 144.95C448.522 145.111 448.052 145.111 447.764 144.95C447.477 144.789 447.712 144.657 448.287 144.657C448.861 144.657 449.097 144.789 448.809 144.95ZM502.837 147.465C502.979 147.784 503.178 148.045 503.279 148.045C503.381 148.045 503.464 147.784 503.464 147.465C503.464 147.146 503.264 146.886 503.021 146.886C502.778 146.886 502.694 147.146 502.837 147.465ZM513.836 147.282C514.137 147.449 514.498 147.428 514.636 147.236C514.775 147.043 514.529 146.906 514.088 146.931C513.601 146.959 513.502 147.097 513.836 147.282ZM342.948 154.57C342.948 154.809 339.14 154.956 334.484 154.897C328.625 154.822 327.113 154.688 329.573 154.462C334.677 153.992 342.947 154.059 342.948 154.57ZM347.129 154.783C347.129 154.905 346.236 154.974 345.143 154.936C343.436 154.877 343.333 154.812 344.412 154.472C345.584 154.103 347.129 154.28 347.129 154.783ZM325.497 154.809C325.21 154.97 324.74 154.97 324.452 154.809C324.165 154.648 324.4 154.517 324.975 154.517C325.549 154.517 325.785 154.648 325.497 154.809ZM287.666 156.045C287.956 156.31 286.241 156.541 283.805 156.566C281.394 156.591 279.498 156.441 279.59 156.233C279.844 155.665 287.065 155.497 287.666 156.045ZM478.723 156.561C479.024 156.728 479.385 156.708 479.524 156.515C479.663 156.322 479.416 156.186 478.975 156.211C478.488 156.238 478.389 156.376 478.723 156.561ZM448.173 157.095C448.035 157.288 447.674 157.308 447.372 157.141C447.039 156.956 447.138 156.818 447.625 156.79C448.066 156.766 448.312 156.902 448.173 157.095ZM302.902 158.337C305.36 158.439 309.499 158.44 312.098 158.338C314.697 158.236 312.685 158.152 307.627 158.152C302.569 158.151 300.443 158.235 302.902 158.337ZM340.365 158.611C340.588 158.92 341.119 159.071 341.546 158.945C342.121 158.776 342.015 158.63 341.141 158.383C340.378 158.167 340.103 158.248 340.365 158.611ZM469.945 158.301C470.246 158.468 470.607 158.447 470.746 158.255C470.885 158.062 470.638 157.925 470.197 157.95C469.71 157.978 469.611 158.116 469.945 158.301ZM343.685 158.895C344.205 159.033 344.958 159.028 345.357 158.883C345.757 158.738 345.332 158.624 344.412 158.631C343.492 158.637 343.165 158.756 343.685 158.895ZM349.538 158.895C350.058 159.033 350.81 159.028 351.21 158.883C351.609 158.738 351.184 158.624 350.264 158.631C349.344 158.637 349.018 158.756 349.538 158.895ZM362.498 158.905C363.249 159.034 364.378 159.031 365.006 158.899C365.635 158.766 365.02 158.661 363.64 158.664C362.261 158.667 361.747 158.776 362.498 158.905ZM368.558 158.901C369.193 159.034 370.134 159.03 370.648 158.893C371.162 158.755 370.642 158.646 369.492 158.65C368.343 158.655 367.922 158.768 368.558 158.901ZM423.311 158.884C423.713 159.03 424.372 159.03 424.774 158.884C425.176 158.739 424.847 158.619 424.042 158.619C423.238 158.619 422.909 158.739 423.311 158.884ZM430.208 158.868C430.495 159.03 430.966 159.03 431.253 158.868C431.54 158.708 431.305 158.576 430.73 158.576C430.156 158.576 429.921 158.708 430.208 158.868Z" fill="#0A1334"/>
<path d="M1.90018 17.784H8.23618L19.9722 58.032H18.3162L30.3402 22.464H34.1562L46.0362 57.744H44.4522L57.9162 17.784H64.1802L48.1962 63H42.2922L31.8522 32.328H32.9322L22.1322 63H16.2282L1.90018 17.784ZM81.4118 63.864C78.4358 63.864 75.7718 63.108 73.4198 61.596C71.0918 60.06 69.2438 57.936 67.8758 55.224C66.5318 52.512 65.8598 49.392 65.8598 45.864C65.8598 42.096 66.5318 38.856 67.8758 36.144C69.2198 33.432 71.0558 31.356 73.3838 29.916C75.7358 28.452 78.4118 27.72 81.4118 27.72C84.0278 27.72 86.2598 28.248 88.1078 29.304C89.9558 30.36 91.4438 31.788 92.5718 33.588C93.6998 35.388 94.4798 37.428 94.9118 39.708C95.3678 41.964 95.4998 44.304 95.3078 46.728H70.3958V43.272H91.5998L89.9438 44.352C90.0158 42.936 89.9318 41.52 89.6918 40.104C89.4758 38.688 89.0558 37.392 88.4318 36.216C87.8078 35.016 86.9318 34.056 85.8038 33.336C84.6758 32.616 83.2358 32.256 81.4838 32.256C79.2758 32.256 77.4278 32.82 75.9398 33.948C74.4518 35.076 73.3358 36.564 72.5918 38.412C71.8478 40.236 71.4758 42.216 71.4758 44.352V46.656C71.4758 49.056 71.8358 51.204 72.5558 53.1C73.2998 54.996 74.4038 56.496 75.8678 57.6C77.3318 58.704 79.1798 59.256 81.4118 59.256C83.6438 59.256 85.4798 58.716 86.9198 57.636C88.3598 56.556 89.2358 54.96 89.5478 52.848H95.3798C95.0198 55.128 94.2038 57.096 92.9318 58.752C91.6598 60.384 90.0398 61.644 88.0718 62.532C86.1038 63.42 83.8838 63.864 81.4118 63.864ZM139.631 64.008C135.527 64.008 131.951 63.036 128.903 61.092C125.879 59.124 123.527 56.316 121.847 52.668C120.167 49.02 119.327 44.64 119.327 39.528C119.327 34.248 120.191 29.82 121.919 26.244C123.671 22.644 126.071 19.932 129.119 18.108C132.191 16.26 135.695 15.336 139.631 15.336C145.079 15.336 149.327 16.656 152.375 19.296C155.447 21.936 157.415 25.368 158.279 29.592L149.207 31.248C148.463 28.8 147.275 26.82 145.643 25.308C144.011 23.796 142.007 23.04 139.631 23.04C137.543 23.04 135.659 23.652 133.979 24.876C132.299 26.076 130.955 27.9 129.947 30.348C128.963 32.796 128.471 35.856 128.471 39.528C128.471 42.984 128.903 45.96 129.767 48.456C130.655 50.952 131.927 52.872 133.583 54.216C135.239 55.56 137.255 56.232 139.631 56.232C142.679 56.232 145.031 55.428 146.687 53.82C148.367 52.188 149.207 50.112 149.207 47.592H158.279C158.279 51.072 157.523 54.036 156.011 56.484C154.523 58.908 152.387 60.768 149.603 62.064C146.819 63.36 143.495 64.008 139.631 64.008ZM185.408 64.008C181.256 64.008 177.584 63.096 174.392 61.272C171.224 59.448 168.74 56.724 166.94 53.1C165.14 49.476 164.24 44.976 164.24 39.6C164.24 34.128 165.14 29.604 166.94 26.028C168.74 22.428 171.224 19.752 174.392 18C177.584 16.224 181.256 15.336 185.408 15.336C189.584 15.336 193.268 16.248 196.46 18.072C199.652 19.872 202.148 22.572 203.948 26.172C205.748 29.772 206.648 34.248 206.648 39.6C206.648 45.048 205.748 49.584 203.948 53.208C202.148 56.832 199.652 59.544 196.46 61.344C193.268 63.12 189.584 64.008 185.408 64.008ZM185.408 56.304C189.224 56.304 192.248 54.864 194.48 51.984C196.736 49.104 197.864 44.952 197.864 39.528C197.864 34.296 196.736 30.228 194.48 27.324C192.248 24.42 189.224 22.968 185.408 22.968C181.664 22.968 178.664 24.432 176.408 27.36C174.152 30.264 173.024 34.344 173.024 39.6C173.024 45 174.152 49.14 176.408 52.02C178.664 54.876 181.664 56.304 185.408 56.304ZM224.476 16.272V55.584H243.7V63H215.98V16.272H224.476ZM259.334 16.272V55.584H278.558V63H250.838V16.272H259.334ZM285.625 63V16.272H315.649V23.616H294.121V35.928H314.353V43.272H294.121V55.584H315.649V63H285.625ZM344.226 64.008C340.122 64.008 336.546 63.036 333.498 61.092C330.474 59.124 328.122 56.316 326.442 52.668C324.762 49.02 323.922 44.64 323.922 39.528C323.922 34.248 324.786 29.82 326.514 26.244C328.266 22.644 330.666 19.932 333.714 18.108C336.786 16.26 340.29 15.336 344.226 15.336C349.674 15.336 353.922 16.656 356.97 19.296C360.042 21.936 362.01 25.368 362.874 29.592L353.802 31.248C353.058 28.8 351.87 26.82 350.238 25.308C348.606 23.796 346.602 23.04 344.226 23.04C342.138 23.04 340.254 23.652 338.574 24.876C336.894 26.076 335.55 27.9 334.542 30.348C333.558 32.796 333.066 35.856 333.066 39.528C333.066 42.984 333.498 45.96 334.362 48.456C335.25 50.952 336.522 52.872 338.178 54.216C339.834 55.56 341.85 56.232 344.226 56.232C347.274 56.232 349.626 55.428 351.282 53.82C352.962 52.188 353.802 50.112 353.802 47.592H362.874C362.874 51.072 362.118 54.036 360.606 56.484C359.118 58.908 356.982 60.768 354.198 62.064C351.414 63.36 348.09 64.008 344.226 64.008ZM365.883 23.616V16.272H403.323V23.616H386.943L388.851 21.672V63H380.355V21.672L382.263 23.616H365.883ZM421.48 17.784H427.816L439.552 58.032H437.896L449.92 22.464H453.736L465.616 57.744H464.032L477.496 17.784H483.76L467.776 63H461.872L451.432 32.328H452.512L441.712 63H435.808L421.48 17.784ZM515.84 63V42.768C515.84 39.48 515.048 36.984 513.464 35.28C511.904 33.552 509.768 32.688 507.056 32.688C504.992 32.688 503.204 33.252 501.692 34.38C500.18 35.508 499.016 37.128 498.2 39.24C497.384 41.328 496.976 43.824 496.976 46.728H494.816C494.816 42.72 495.344 39.3 496.4 36.468C497.456 33.636 498.992 31.476 501.008 29.988C503.048 28.476 505.52 27.72 508.424 27.72C511.136 27.72 513.452 28.332 515.372 29.556C517.316 30.756 518.804 32.484 519.836 34.74C520.868 36.996 521.384 39.672 521.384 42.768V63H515.84ZM491.36 63V13.896H496.976V63H491.36ZM555.405 63L554.685 55.44V40.68C554.685 37.584 554.025 35.364 552.705 34.02C551.385 32.652 549.405 31.968 546.765 31.968C545.277 31.968 543.921 32.184 542.697 32.616C541.497 33.048 540.537 33.72 539.817 34.632C539.121 35.52 538.773 36.672 538.773 38.088H532.509C532.509 35.592 533.121 33.588 534.345 32.076C535.569 30.54 537.249 29.436 539.385 28.764C541.545 28.068 544.005 27.72 546.765 27.72C549.405 27.72 551.745 28.164 553.785 29.052C555.825 29.94 557.421 31.356 558.573 33.3C559.725 35.22 560.301 37.728 560.301 40.824V63H555.405ZM543.669 63.864C540.837 63.864 538.497 63.36 536.649 62.352C534.801 61.344 533.421 60.036 532.509 58.428C531.597 56.82 531.141 55.128 531.141 53.352C531.141 51.024 531.717 49.128 532.869 47.664C534.045 46.2 535.641 45.132 537.657 44.46C539.673 43.764 541.941 43.416 544.461 43.416C546.261 43.416 548.061 43.596 549.861 43.956C551.685 44.316 553.461 44.808 555.189 45.432V48.96C553.749 48.384 552.117 47.928 550.293 47.592C548.493 47.256 546.837 47.088 545.325 47.088C543.021 47.088 541.077 47.568 539.493 48.528C537.909 49.464 537.117 51.072 537.117 53.352C537.117 55.032 537.717 56.472 538.917 57.672C540.141 58.872 542.085 59.472 544.749 59.472C546.621 59.472 548.301 59.04 549.789 58.176C551.301 57.288 552.489 56.184 553.353 54.864C554.241 53.544 554.685 52.224 554.685 50.904H556.053C556.053 53.208 555.549 55.344 554.541 57.312C553.557 59.28 552.141 60.864 550.293 62.064C548.445 63.264 546.237 63.864 543.669 63.864ZM583.613 63.864C581.741 63.864 580.061 63.504 578.573 62.784C577.085 62.064 575.909 60.984 575.045 59.544C574.181 58.104 573.749 56.304 573.749 54.144V19.008H579.293V54C579.293 57.552 580.949 59.328 584.261 59.328C585.245 59.328 586.193 59.22 587.105 59.004C588.041 58.788 589.085 58.464 590.237 58.032L591.029 62.064C589.805 62.592 588.581 63.024 587.357 63.36C586.157 63.696 584.909 63.864 583.613 63.864ZM568.205 32.472V28.584H590.165V32.472H568.205ZM85.3105 96.784H92.0785L105.039 118.744H103.599L116.775 96.784H123.471L107.127 123.424V142H101.439V123.424L85.3105 96.784ZM138.475 142.864C135.379 142.864 132.619 142.18 130.195 140.812C127.795 139.444 125.899 137.416 124.507 134.728C123.115 132.04 122.419 128.728 122.419 124.792C122.419 120.832 123.115 117.52 124.507 114.856C125.899 112.168 127.795 110.14 130.195 108.772C132.619 107.404 135.379 106.72 138.475 106.72C141.547 106.72 144.283 107.404 146.683 108.772C149.107 110.14 151.003 112.168 152.371 114.856C153.763 117.52 154.459 120.832 154.459 124.792C154.459 128.728 153.763 132.04 152.371 134.728C151.003 137.416 149.107 139.444 146.683 140.812C144.283 142.18 141.547 142.864 138.475 142.864ZM138.331 137.968C140.563 137.968 142.459 137.44 144.019 136.384C145.579 135.304 146.755 133.78 147.547 131.812C148.363 129.844 148.771 127.504 148.771 124.792C148.771 120.688 147.919 117.46 146.215 115.108C144.511 112.732 141.979 111.544 138.619 111.544C136.363 111.544 134.455 112.084 132.895 113.164C131.359 114.22 130.183 115.744 129.367 117.736C128.575 119.704 128.179 122.056 128.179 124.792C128.179 128.848 129.031 132.064 130.735 134.44C132.463 136.792 134.995 137.968 138.331 137.968ZM188.074 107.512H193.69V142H188.074V107.512ZM163.666 107.512H169.282V128.968C169.282 131.848 169.978 134.032 171.37 135.52C172.786 137.008 174.802 137.752 177.418 137.752C179.578 137.752 181.45 137.176 183.034 136.024C184.642 134.872 185.878 133.288 186.742 131.272C187.63 129.232 188.074 126.904 188.074 124.288H190.162C190.162 128.152 189.598 131.452 188.47 134.188C187.366 136.924 185.794 139.024 183.754 140.488C181.738 141.928 179.362 142.648 176.626 142.648C174.034 142.648 171.766 142.168 169.822 141.208C167.878 140.248 166.366 138.796 165.286 136.852C164.206 134.884 163.666 132.4 163.666 129.4V107.512Z" fill="#0A1334"/>
<path d="M240.33 143.008C236.226 143.008 232.65 142.036 229.602 140.092C226.578 138.124 224.226 135.316 222.546 131.668C220.866 128.02 220.026 123.64 220.026 118.528C220.026 113.248 220.89 108.82 222.618 105.244C224.37 101.644 226.77 98.932 229.818 97.108C232.89 95.26 236.394 94.336 240.33 94.336C245.778 94.336 250.026 95.656 253.074 98.296C256.146 100.936 258.114 104.368 258.978 108.592L249.906 110.248C249.162 107.8 247.974 105.82 246.342 104.308C244.71 102.796 242.706 102.04 240.33 102.04C238.242 102.04 236.358 102.652 234.678 103.876C232.998 105.076 231.654 106.9 230.646 109.348C229.662 111.796 229.17 114.856 229.17 118.528C229.17 121.984 229.602 124.96 230.466 127.456C231.354 129.952 232.626 131.872 234.282 133.216C235.938 134.56 237.954 135.232 240.33 135.232C243.378 135.232 245.73 134.428 247.386 132.82C249.066 131.188 249.906 129.112 249.906 126.592H258.978C258.978 130.072 258.222 133.036 256.71 135.484C255.222 137.908 253.086 139.768 250.302 141.064C247.518 142.36 244.194 143.008 240.33 143.008ZM276.747 95.272V134.584H295.971V142H268.251V95.272H276.747ZM302.389 95.272H310.885V124.36C310.885 128.2 311.857 130.972 313.801 132.676C315.769 134.38 318.277 135.232 321.325 135.232C324.397 135.232 326.905 134.38 328.849 132.676C330.793 130.972 331.765 128.2 331.765 124.36V95.272H340.261V124.36C340.261 128.296 339.505 131.656 337.993 134.44C336.481 137.224 334.309 139.348 331.477 140.812C328.669 142.276 325.285 143.008 321.325 143.008C317.365 143.008 313.969 142.276 311.137 140.812C308.329 139.348 306.169 137.224 304.657 134.44C303.145 131.656 302.389 128.296 302.389 124.36V95.272ZM345.836 102.616V95.272H383.276V102.616H366.896L368.804 100.672V142H360.308V100.672L362.216 102.616H345.836ZM383.366 102.616V95.272H420.806V102.616H404.426L406.334 100.672V142H397.838V100.672L399.746 102.616H383.366ZM427.088 142V95.272H457.112V102.616H435.584V114.928H455.816V122.272H435.584V134.584H457.112V142H427.088ZM468.698 142V95.272H485.978C491.57 95.272 495.854 96.58 498.83 99.196C501.83 101.812 503.33 105.28 503.33 109.6C503.33 113.848 501.83 117.28 498.83 119.896C495.854 122.488 491.57 123.784 485.978 123.784H477.194V142H468.698ZM493.97 142L481.586 120.112H490.658L505.058 142H493.97ZM477.194 118.096H485.114C488.234 118.096 490.598 117.388 492.206 115.972C493.814 114.532 494.618 112.672 494.618 110.392C494.618 108.064 493.886 106.192 492.422 104.776C490.958 103.336 488.81 102.616 485.978 102.616H477.194V118.096Z" fill="white"/>
</svg>
