<svg width="1440" height="1339" viewBox="0 0 1440 1339" fill="none" xmlns="http://www.w3.org/2000/svg">
<g opacity="0.32">
<path d="M0.000488281 -0.000167847C120.488 -172.501 1316 132.5 1440 -0.000167847" stroke="#CECECE" stroke-width="0.5"/>
<path d="M0.00146484 32.5994C120.489 -139.901 1316 165.099 1440 32.5994" stroke="#CECECE" stroke-width="0.5"/>
<path d="M0.00146484 65.2C120.489 -107.3 1316 197.7 1440 65.2" stroke="#CECECE" stroke-width="0.5"/>
<path d="M0 97.7996C120.487 -74.7007 1316 230.3 1440 97.7996" stroke="#CECECE" stroke-width="0.5"/>
<path d="M0.000976563 130.4C120.488 -42.1001 1316 262.9 1440 130.4" stroke="#CECECE" stroke-width="0.5"/>
<path d="M0.000976563 163C120.488 -9.50053 1316 295.5 1440 163" stroke="#CECECE" stroke-width="0.5"/>
<path d="M0.000976563 195.599C120.488 23.0991 1316 328.099 1440 195.599" stroke="#CECECE" stroke-width="0.5"/>
<path d="M0.000976563 228.2C120.488 55.6997 1316 360.7 1440 228.2" stroke="#CECECE" stroke-width="0.5"/>
<path d="M0.00146484 260.8C120.489 88.2993 1316 393.3 1440 260.8" stroke="#CECECE" stroke-width="0.5"/>
<path d="M0.000976563 293.4C120.488 120.9 1316 425.9 1440 293.4" stroke="#CECECE" stroke-width="0.5"/>
<path d="M0 326C120.487 153.499 1316 458.5 1440 326" stroke="#CECECE" stroke-width="0.5"/>
<path d="M0.000976563 358.599C120.488 186.099 1316 491.099 1440 358.599" stroke="#CECECE" stroke-width="0.5"/>
<path d="M0.000976563 391.2C120.488 218.7 1316 523.7 1440 391.2" stroke="#CECECE" stroke-width="0.5"/>
<path d="M0.00146484 423.8C120.489 251.299 1316 556.3 1440 423.8" stroke="#CECECE" stroke-width="0.5"/>
<path d="M0.00146484 456.4C120.489 283.9 1316 588.9 1440 456.4" stroke="#CECECE" stroke-width="0.5"/>
<path d="M0.000976563 489C120.488 316.499 1316 621.5 1440 489" stroke="#CECECE" stroke-width="0.5"/>
<path d="M0.000976563 521.599C120.488 349.099 1316 654.099 1440 521.599" stroke="#CECECE" stroke-width="0.5"/>
<path d="M0.000976563 554.2C120.488 381.7 1316 686.7 1440 554.2" stroke="#CECECE" stroke-width="0.5"/>
<path d="M0 586.8C120.487 414.299 1316 719.3 1440 586.8" stroke="#CECECE" stroke-width="0.5"/>
<path d="M0.000976563 619.4C120.488 446.9 1316 751.9 1440 619.4" stroke="#CECECE" stroke-width="0.5"/>
<path d="M0.000976563 652C120.488 479.499 1316 784.5 1440 652" stroke="#CECECE" stroke-width="0.5"/>
<path d="M0.00146484 684.599C120.489 512.099 1316 817.099 1440 684.599" stroke="#CECECE" stroke-width="0.5"/>
<path d="M0.000976563 717.2C120.488 544.7 1316 849.7 1440 717.2" stroke="#CECECE" stroke-width="0.5"/>
<path d="M0 749.8C120.487 577.299 1316 882.3 1440 749.8" stroke="#CECECE" stroke-width="0.5"/>
<path d="M0.00146484 782.4C120.489 609.9 1316 914.9 1440 782.4" stroke="#CECECE" stroke-width="0.5"/>
<path d="M0.00146484 815C120.489 642.499 1316 947.5 1440 815" stroke="#CECECE" stroke-width="0.5"/>
<path d="M0.000976563 847.599C120.488 675.099 1316 980.099 1440 847.599" stroke="#CECECE" stroke-width="0.5"/>
<path d="M0.000976563 880.2C120.488 707.7 1316 1012.7 1440 880.2" stroke="#CECECE" stroke-width="0.5"/>
<path d="M0.00146484 912.8C120.489 740.299 1316 1045.3 1440 912.8" stroke="#CECECE" stroke-width="0.5"/>
<path d="M0.00146484 945.4C120.489 772.9 1316 1077.9 1440 945.4" stroke="#CECECE" stroke-width="0.5"/>
<path d="M0 978C120.487 805.499 1316 1110.5 1440 978" stroke="#CECECE" stroke-width="0.5"/>
<path d="M0.000976563 1010.6C120.488 838.099 1316 1143.1 1440 1010.6" stroke="#CECECE" stroke-width="0.5"/>
<path d="M0.000976563 1043.2C120.488 870.7 1316 1175.7 1440 1043.2" stroke="#CECECE" stroke-width="0.5"/>
<path d="M0.000976563 1075.8C120.488 903.299 1316 1208.3 1440 1075.8" stroke="#CECECE" stroke-width="0.5"/>
<path d="M0.00244141 1108.4C120.49 935.9 1316 1240.9 1440 1108.4" stroke="#CECECE" stroke-width="0.5"/>
<path d="M0.00146484 1141C120.489 968.499 1316 1273.5 1440 1141" stroke="#CECECE" stroke-width="0.5"/>
<path d="M0.000976563 1173.6C120.488 1001.1 1316 1306.1 1440 1173.6" stroke="#CECECE" stroke-width="0.5"/>
<path d="M0.00146484 1206.2C120.489 1033.7 1316 1338.7 1440 1206.2" stroke="#CECECE" stroke-width="0.5"/>
<path d="M0.000976563 1238.8C120.488 1066.3 1316 1371.3 1440 1238.8" stroke="#CECECE" stroke-width="0.5"/>
<path d="M0.000976563 1271.4C120.488 1098.9 1316 1403.9 1440 1271.4" stroke="#CECECE" stroke-width="0.5"/>
<path d="M0.00146484 1304C120.489 1131.5 1316 1436.5 1440 1304" stroke="#CECECE" stroke-width="0.5"/>
</g>
</svg>
